<svg viewBox="0 0 40 36" fill="none" xmlns="http://www.w3.org/2000/svg">
  <path fill-rule="evenodd" clip-rule="evenodd"
    d="M0 8.06897C0 3.6126 3.6126 0 8.06896 0H31.6552C36.1115 0 39.7241 3.6126 39.7241 8.06897V18C39.7241 19.0284 38.8905 19.8621 37.8621 19.8621C36.8337 19.8621 36 19.0284 36 18V13.6552H3.72414V26.6897C3.72414 29.0892 5.66938 31.0345 8.06896 31.0345H15.5172C16.5456 31.0345 17.3793 31.8682 17.3793 32.8966C17.3793 33.9249 16.5456 34.7586 15.5172 34.7586H8.06896C3.6126 34.7586 0 31.146 0 26.6897V8.06897ZM3.72414 9.93104H36V8.06897C36 5.66938 34.0548 3.72414 31.6552 3.72414H8.06896C5.66938 3.72414 3.72414 5.66938 3.72414 8.06897V9.93104ZM29.1724 17.3793C30.2008 17.3793 31.0345 18.213 31.0345 19.2414V24.8276H36.6207C37.6491 24.8276 38.4828 25.6613 38.4828 26.6897C38.4828 27.718 37.6491 28.5517 36.6207 28.5517H31.0345V34.1379C31.0345 35.1663 30.2008 36 29.1724 36C28.144 36 27.3103 35.1663 27.3103 34.1379V28.5517H21.7241C20.6957 28.5517 19.8621 27.718 19.8621 26.6897C19.8621 25.6613 20.6957 24.8276 21.7241 24.8276H27.3103V19.2414C27.3103 18.213 28.144 17.3793 29.1724 17.3793Z"
    fill="url(#widget-icon-linear)" />
  <defs>
    <linearGradient id="widget-icon-linear" x1="8" y1="-7" x2="40" y2="50" gradientUnits="userSpaceOnUse">
      <stop stop-color="#FB23FF" />
      <stop offset="1" stop-color="#7DA2FF" />
    </linearGradient>
  </defs>
</svg>